<svg xmlns="http://www.w3.org/2000/svg" width="975" height="819" viewBox="0 0 975 819" version="1.1"><path d="M 560.345 3.259 C 556.138 8.051, 547.771 19.901, 524.517 54 C 483.433 114.242, 472.122 129.174, 465.272 132.204 C 459.588 134.718, 455.891 133.891, 451.013 129.013 C 445.737 123.737, 442.885 115.672, 442.243 104.213 C 441.898 98.049, 441.350 95.046, 440.612 95.285 C 440 95.482, 437.325 100.786, 434.667 107.072 C 419.991 141.779, 414.821 151.055, 404 162.093 C 399.685 166.495, 394.164 170.956, 391 172.598 C 386.022 175.182, 384.599 175.444, 376 175.356 C 369.702 175.291, 363.814 174.536, 358.529 173.114 C 332.192 166.027, 278.884 139.877, 109.195 50.806 C 78.777 34.840, 53.675 21.992, 53.411 22.255 C 53.148 22.519, 61.439 43.156, 71.836 68.117 C 140.173 232.177, 180.903 350.104, 181.329 385.135 C 181.423 392.865, 181.121 394.382, 178.446 399.613 C 175.894 404.603, 174.656 405.862, 169.979 408.226 C 165.085 410.698, 161.936 411.263, 140.500 413.510 C 97.449 418.024, 69.547 422.053, 67.558 424.042 C 66.890 424.710, 75.388 433.939, 93.090 451.772 C 127.298 486.230, 138.215 497.849, 142.614 504.474 L 146.185 509.852 144.580 515.372 C 141.593 525.649, 129.654 534.516, 107.250 543.096 C 103.813 544.413, 101 545.791, 101 546.160 C 101 547.182, 109.732 554.677, 116.910 559.816 C 120.436 562.339, 126.647 565.578, 130.712 567.013 L 138.104 569.622 125.888 582.561 C 101.584 608.304, 78.343 635.762, 65.424 654 C 48.468 677.934, 30.357 711.858, 15.558 747.400 C 8.089 765.338, -0.230 788.879, 0.359 790.411 C 0.590 791.010, 3.268 786.325, 6.312 780 C 20.238 751.058, 37.447 724.158, 64.844 688.500 C 89.491 656.421, 97.686 647.234, 136.711 607.931 C 158.320 586.167, 176 568.084, 176 567.746 C 176 567.408, 170.262 563.680, 163.250 559.461 C 156.238 555.243, 150.353 551.654, 150.174 551.486 C 149.994 551.318, 157.135 541.468, 166.043 529.596 L 182.238 508.012 180.446 505.256 C 173.004 493.810, 154.611 473.459, 142.707 463.500 C 137.447 459.100, 133.112 455.233, 133.072 454.908 C 132.979 454.144, 148.025 450.487, 159.150 448.571 C 170.865 446.552, 194.527 444.167, 217.500 442.689 C 233.184 441.680, 236.479 441.207, 236.377 439.983 C 236.310 439.167, 213.212 365.222, 185.050 275.660 C 156.888 186.099, 133.993 112.677, 134.173 112.502 C 134.353 112.327, 194.538 137.342, 267.918 168.092 C 341.297 198.841, 401.844 224, 402.467 224 C 403.090 224, 411.190 210.255, 420.468 193.455 C 429.745 176.655, 437.645 162.720, 438.022 162.487 C 438.399 162.254, 442.219 171.499, 446.512 183.031 C 450.804 194.564, 454.583 203.975, 454.908 203.944 C 455.234 203.913, 474.616 177.112, 497.981 144.386 C 521.345 111.660, 540.559 85.248, 540.677 85.692 C 540.796 86.137, 546.782 115.525, 553.979 151 C 561.177 186.475, 567.253 216.040, 567.482 216.700 C 567.753 217.479, 574.149 214.882, 585.700 209.304 C 609.174 197.966, 633.319 186.986, 633.774 187.440 C 634.083 187.750, 627.923 235.191, 626.526 243.250 C 626.262 244.774, 626.508 246, 627.077 246 C 627.642 246, 683.907 226.602, 752.111 202.893 C 820.316 179.184, 876.281 159.948, 876.478 160.145 C 876.676 160.343, 859.150 224.178, 837.532 302.002 C 815.915 379.826, 798.388 443.675, 798.585 443.888 C 798.782 444.102, 813.871 445.779, 832.116 447.616 C 850.361 449.452, 865.413 451.079, 865.565 451.232 C 865.717 451.384, 857.993 465.374, 848.400 482.320 L 830.958 513.133 833.198 516.316 C 834.430 518.067, 838.709 523.913, 842.708 529.307 C 849.916 539.029, 849.967 539.142, 848.593 542.307 C 847.831 544.063, 844.512 551.375, 841.219 558.555 L 835.230 571.609 846.502 583.307 C 873.958 611.800, 903.315 654.142, 921.518 691.500 C 934.506 718.158, 952.841 764.076, 966.565 804.318 C 969.131 811.843, 971.587 818, 972.022 818 C 972.457 818, 972.636 817.212, 972.421 816.250 C 972.205 815.288, 970.703 807.525, 969.084 799 C 957.663 738.881, 939.894 677.938, 922.287 638.500 C 915.224 622.680, 896.719 590.317, 880.462 565.357 L 873.205 554.214 886.610 541.524 C 893.983 534.545, 899.793 528.474, 899.520 528.032 C 899.247 527.591, 894.264 525.317, 888.447 522.979 C 882.630 520.641, 877.171 518.028, 876.315 517.172 C 875.107 515.964, 874.866 514.118, 875.238 508.924 C 875.859 500.232, 881.086 489.275, 891.419 475 C 897.171 467.053, 899.994 461.947, 903.028 454 C 911.996 430.511, 919.156 418.620, 930.713 408.019 L 937.500 401.794 931 402.396 C 927.425 402.726, 916.625 403.464, 907 404.036 C 882.976 405.462, 848.736 407.856, 841.592 408.610 L 835.684 409.233 836.352 399.367 C 837.611 380.766, 842.831 361.190, 853.522 334.975 C 857.005 326.437, 868.163 297.637, 878.318 270.975 C 916.342 171.152, 934.939 126.871, 963.103 69.094 C 969.646 55.670, 975 44.533, 975 44.344 C 975 43.229, 967.101 46.960, 907.315 76.310 C 823.176 117.614, 743.412 158.474, 685.495 189.936 C 677.425 194.320, 671.062 197.365, 671.355 196.703 C 677.034 183.892, 684.732 163.445, 686.542 156.364 C 688.987 146.799, 690.853 130, 689.471 130 C 689.029 130, 683.819 133.161, 677.894 137.024 C 653.132 153.171, 628.086 163.786, 612.500 164.742 C 595.293 165.796, 588.848 160.677, 583.117 141.402 C 576.490 119.118, 569.654 70.024, 565.830 17.250 C 565.142 7.762, 564.271 0, 563.893 0 C 563.516 0, 561.919 1.467, 560.345 3.259 M 318.469 409.485 C 318.084 413.601, 318.006 429.014, 318.297 443.735 C 319.023 480.438, 322.502 498.624, 333.049 520.832 C 339.949 535.362, 345.706 543.557, 355.571 552.896 C 370.705 567.221, 391.532 575.609, 418.270 578.147 C 430.427 579.301, 454.357 578.043, 456.250 576.150 C 457.043 575.357, 444.520 556.661, 427.874 533.787 C 403.189 499.869, 323.488 402, 320.550 402 C 319.563 402, 318.971 404.128, 318.469 409.485 M 701.994 476.939 C 695.065 479.034, 678.499 491.127, 645 518.545 C 624.868 535.022, 589.730 562.880, 575.250 573.843 C 570.712 577.279, 567 580.472, 567 580.938 C 567 582.607, 570.676 583.115, 586.971 583.699 C 616.946 584.772, 643.886 580.783, 659.883 572.902 C 681.218 562.390, 697.168 536.046, 704.628 499 C 706.544 489.488, 707.033 476.831, 705.500 476.438 C 704.950 476.297, 703.372 476.522, 701.994 476.939" stroke="none" fill="#ffffff" fill-rule="evenodd"/></svg>