<svg class="svg-icon" style="width: 1em; height: 1em;vertical-align: middle;fill: currentColor;overflow: hidden;" viewBox="0 0 1024 1024" version="1.1" xmlns="http://www.w3.org/2000/svg"><path d="M874.039863 149.959977C777.335879 53.255992 648.759899 0 511.99992 0 375.239941 0 246.663961 53.255992 149.959977 149.959977 53.255992 246.663961 0 375.239941 0 511.99992c0 136.759979 53.255992 265.335959 149.959977 362.039943C246.663961 970.743848 375.239941 1023.99984 511.99992 1023.99984a511.16792 511.16792 0 0 0 264.919959-73.791988 39.999994 39.999994 0 0 0-41.439994-68.42399A431.247933 431.247933 0 0 1 511.99992 943.999853c-224.719965 0-409.879936-172.479973-430.135933-391.999939h254.62396C354.719945 632.063901 426.479933 691.999892 511.99992 691.999892c85.503987 0 157.279975-59.935991 175.519973-139.999978h254.60796c-6.655999 70.991989-30.991995 139.359978-71.375989 199.775969a39.999994 39.999994 0 1 0 66.50399 44.455993C993.999845 711.359889 1023.99984 613.063904 1023.99984 511.99992c0-136.759979-53.255992-265.335959-149.959977-362.039943zM511.99992 79.999988c224.719965 0 409.879936 172.479973 430.135933 391.999938H687.511893C669.279895 391.935939 597.519907 331.999948 511.99992 331.999948c-85.503987 0-157.279975 59.935991-175.519973 139.999978H81.871987C102.119984 252.479961 287.279955 79.999988 511.99992 79.999988z m0 531.999916c-55.143991 0-99.999984-44.855993-99.999984-99.999984S456.855929 411.999936 511.99992 411.999936 611.999904 456.855929 611.999904 511.99992 567.143911 611.999904 511.99992 611.999904z" fill="#4A90E2" /></svg>